<svg width="51" height="50" viewBox="0 0 51 50" fill="none" xmlns="http://www.w3.org/2000/svg">
<path d="M25.7917 3.125C25.7917 1.39911 27.1963 -0.0201441 28.9087 0.195028C33.4032 0.759776 37.681 2.53849 41.2691 5.36708C45.679 8.84358 48.7901 13.7036 50.101 19.1639C51.4119 24.6242 50.8463 30.3668 48.4953 35.4665C46.1444 40.5662 42.1449 44.7258 37.1415 47.2752C32.1381 49.8245 26.4221 50.6152 20.9145 49.5196C15.4069 48.4241 10.4286 45.5062 6.7816 41.2362C3.13464 36.9662 1.03148 31.5926 0.811022 25.9815C0.631648 21.4161 1.70711 16.9097 3.89202 12.9417C4.72448 11.4298 6.69823 11.1277 8.0945 12.1422C9.49078 13.1566 9.77323 15.103 9.00449 16.6483C7.61003 19.4512 6.932 22.5748 7.0562 25.7361C7.22155 29.9445 8.79892 33.9746 11.5341 37.1771C14.2694 40.3797 18.0031 42.5681 22.1338 43.3897C26.2645 44.2114 30.5515 43.6184 34.3041 41.7064C38.0566 39.7943 41.0562 36.6746 42.8194 32.8499C44.5827 29.0251 45.0069 24.7181 44.0237 20.6229C43.0405 16.5277 40.7072 12.8827 37.3998 10.2753C34.9152 8.31664 31.9896 7.02919 28.9024 6.5098C27.2004 6.22346 25.7917 4.85089 25.7917 3.125Z" fill="#00C875"/>
</svg>
