<svg width="45" height="50" viewBox="0 0 45 50" fill="none" xmlns="http://www.w3.org/2000/svg">
<path d="M19.7917 3.125C19.7917 1.39911 21.1962 -0.0201238 22.9087 0.195057C26.0964 0.595621 29.1871 1.60823 32.0073 3.1876C35.7394 5.27767 38.8728 8.29037 41.1077 11.9375C43.3427 15.5847 44.6045 19.7443 44.7725 24.0185C44.9404 28.2927 44.0089 32.5385 42.0669 36.3498C40.125 40.161 37.2376 43.4103 33.681 45.7867C30.1244 48.1632 26.0175 49.5873 21.7532 49.9229C17.4889 50.2585 13.2098 49.4944 9.32526 47.7036C6.38988 46.3504 3.75397 44.4451 1.55621 42.1016C0.375587 40.8427 0.69823 38.8723 2.0945 37.8578C3.49078 36.8434 5.4292 37.1762 6.66124 38.3848C8.19361 39.888 9.97842 41.1225 11.9419 42.0277C14.8553 43.3708 18.0646 43.9439 21.2629 43.6922C24.4611 43.4405 27.5412 42.3724 30.2087 40.5901C32.8761 38.8077 35.0417 36.3708 36.4981 33.5123C37.9546 30.6539 38.6532 27.4695 38.5273 24.2639C38.4013 21.0582 37.455 17.9385 35.7788 15.2032C34.1025 12.4678 31.7525 10.2083 28.9534 8.6407C27.067 7.58427 25.0192 6.86594 22.9023 6.50982C21.2004 6.22349 19.7917 4.85089 19.7917 3.125Z" fill="#00C875"/>
</svg>
