<svg width="20" height="20" viewBox="0 0 20 20" fill="none" xmlns="http://www.w3.org/2000/svg">
<path d="M2.1085 12.3084C1.931 13.4701 2.7235 14.2759 3.6935 14.6776C7.41267 16.2192 12.5877 16.2192 16.3068 14.6776C17.2768 14.2759 18.0693 13.4692 17.8918 12.3084C17.7835 11.5942 17.2443 11.0001 16.8452 10.4192C16.3227 9.64925 16.271 8.81008 16.2702 7.91675C16.271 4.46508 13.4643 1.66675 10.0002 1.66675C6.536 1.66675 3.72933 4.46508 3.72933 7.91675C3.72933 8.81008 3.67767 9.65008 3.15433 10.4192C2.756 11.0001 2.21767 11.5942 2.1085 12.3084Z" fill="#9F9F9F"/>
<path d="M6.66699 15.8335C7.04866 17.271 8.39699 18.3335 10.0003 18.3335C11.6045 18.3335 12.9512 17.271 13.3337 15.8335" stroke="#9F9F9F" stroke-width="1.26667" stroke-linecap="round" stroke-linejoin="round"/>
<path d="M19.2369 4.60526C19.2369 6.87254 17.3989 8.71053 15.1316 8.71053C12.8644 8.71053 11.0264 6.87254 11.0264 4.60526C11.0264 2.33799 12.8644 0.5 15.1316 0.5C17.3989 0.5 19.2369 2.33799 19.2369 4.60526Z" fill="#E2445C" stroke="white"/>
</svg>
