<svg width="20" height="20" viewBox="0 0 20 20" fill="none" xmlns="http://www.w3.org/2000/svg">
<path d="M2.10826 12.3083C1.93076 13.47 2.72326 14.2758 3.69326 14.6775C7.41242 16.2192 12.5874 16.2192 16.3066 14.6775C17.2766 14.2758 18.0691 13.4692 17.8916 12.3083C17.7833 11.5942 17.2441 11 16.8449 10.4192C16.3224 9.64917 16.2708 8.81 16.2699 7.91667C16.2708 4.465 13.4641 1.66667 9.99992 1.66667C6.53576 1.66667 3.72909 4.465 3.72909 7.91667C3.72909 8.81 3.67742 9.65 3.15409 10.4192C2.75576 11 2.21742 11.5942 2.10826 12.3083Z" fill="#9F9F9F"/>
<path d="M6.6665 15.8334C7.04817 17.2709 8.3965 18.3334 9.99984 18.3334C11.604 18.3334 12.9507 17.2709 13.3332 15.8334" stroke="#9F9F9F" stroke-width="1.26667" stroke-linecap="round" stroke-linejoin="round"/>
<path d="M19.2369 4.60526C19.2369 6.87254 17.3989 8.71053 15.1316 8.71053C12.8644 8.71053 11.0264 6.87254 11.0264 4.60526C11.0264 2.33799 12.8644 0.5 15.1316 0.5C17.3989 0.5 19.2369 2.33799 19.2369 4.60526Z" fill="#E2445C" stroke="white"/>
</svg>
